# xmcd CD database file
#
# Track frame offsets:
#	150
#	24920
#	50142
#	83947
#	112190
#	128412
#	155157
#	182507
#
# Disc length: 2893 seconds
#
# Revision: 0
# Processed by: cddbd v1.5.1PL2 Copyright (c) Steve Scherf et al.
# Submitted via: CDex 1.51
#
DISCID=640b4b08
DTITLE=Buddy Rich - Who's Who in Jazz
DYEAR=1900
DGENRE=Jazz
TTITLE0=Moments Notice
TTITLE1=Giant Steps
TTITLE2=Buddy's Cherokee
TTITLE3=Take the A Train
TTITLE4=I'll never be the same
TTITLE5=Buddy's Room
TTITLE6=My Funny Balentine
TTITLE7=Latin Silk
EXTD=
EXTT0=
EXTT1=
EXTT2=
EXTT3=
EXTT4=
EXTT5=
EXTT6=
EXTT7=
PLAYORDER=
